<svg xmlns="http://www.w3.org/2000/svg" viewBox="0 0 109.44 79.13"><defs><style>.a{fill:#c72778;}.b{fill:#fff;}</style></defs><title>logo</title><path class="a" d="M4.35,53.35v-.27s0-.09.1-.15A6.23,6.23,0,0,1,4.6,51.6c.09-.46.31-1.77.64-3.93,0,0,.18-1,.46-2.8a16.84,16.84,0,0,1,.52-2.8c.23-1.94.48-3.9.76-5.9s.52-4,.71-6c.49-.88.79-1.43.89-1.64a1.87,1.87,0,0,1,.24-.42v-.84a1,1,0,0,1-.24-.41c-.1-.25-.43-.94-1-2.09-.09-.2-.21-.46-.34-.79C7.12,23,7,22,6.86,21s-.25-2.06-.35-3.07A1.92,1.92,0,0,0,7.32,17,1.91,1.91,0,0,1,8.13,16a4.8,4.8,0,0,1,2.31-.29,4.24,4.24,0,0,0,2.31-.4c.2.59.36,1.06.47,1.4s.34.91.66,1.7a2.26,2.26,0,0,0,.94-.3,22.27,22.27,0,0,1,3.07-3.78,33,33,0,0,1,3.76-3.19,2,2,0,0,1,1.13-.4,8,8,0,0,0,3,1.08,3.13,3.13,0,0,1,1.86-.49c.5.3.86.53,1.11.69l1.84,1.23a3.31,3.31,0,0,0,.13.64,8,8,0,0,1,.22.88c.06.59.1.94.12,1.06a.29.29,0,0,0,.12.22c0,.56,0,1.39.1,2.51q-1.62,2.94-3,6c-.93,2-1.89,4-2.88,6a16.75,16.75,0,0,1-1.89,2.48c-.7.77-1.43,1.5-2.18,2.19a12.32,12.32,0,0,1-3.52,1.84A4.57,4.57,0,0,1,14,36.37H13c-.26,1.34-.43,2.18-.49,2.5s-.13.74-.2,1.23c-.06,0-.13.23-.19.59s-.1.56-.1.59q-.25,1.34-.57,2.7A24.44,24.44,0,0,0,11,46.69a2.28,2.28,0,0,0-.34,1.1c-.06.54-.11.94-.15,1.21-.19.29-.6.84-1.22,1.64s-1.14,1.5-1.53,2.09a2.22,2.22,0,0,1-.37-.17,2.33,2.33,0,0,0-.61-.22h-1a5.28,5.28,0,0,0-.25.88l-.47.13a3,3,0,0,0-.41.17l-.1.1h-.2ZM16.1,25.6a2.86,2.86,0,0,0,.17,1,1,1,0,0,0,.66.67,2.59,2.59,0,0,0,.52-1.5c0-.48,0-1.06,0-1.75a6.75,6.75,0,0,1,.69.69,2.63,2.63,0,0,0,1.55.3q.81-.11,1.65-.15a10,10,0,0,0-.72.83c-.11.17-.37.51-.76,1a7.25,7.25,0,0,0-.66,1.86,16.84,16.84,0,0,0-.17,2,4.27,4.27,0,0,0,2.16-.47,6.25,6.25,0,0,0,1.67-1.65c.36-.78.57-1.24.64-1.37a.89.89,0,0,0,.1-.35,3.36,3.36,0,0,1,.09-.39,1.13,1.13,0,0,1,.2-.44A13.74,13.74,0,0,1,24,24.3,2.68,2.68,0,0,1,24.45,23c.07-1.05.11-1.78.12-2.21s.08-1.39.18-2.9V16.71a4.2,4.2,0,0,1-.08-.47,3.94,3.94,0,0,1,0-.51,16.63,16.63,0,0,0-5.11,1.77,6,6,0,0,0-3.15,4.12,1.91,1.91,0,0,0-.34,1.45c0,.71.05,1.21.05,1.5v1Zm0-1v0Z" transform="translate(-0.56 -3.33)"/><path class="a" d="M40.62,14.5l.1-.1a6.21,6.21,0,0,1,.81-.22l2.14-.47c.06.17.13.31.19.44a2.42,2.42,0,0,0,.25.4,7.12,7.12,0,0,1,2.18.14,3.38,3.38,0,0,1,1.9,1.13h.09c.17.27.41.63.74,1.09a6.9,6.9,0,0,1,.59,2.8,21,21,0,0,1-.19,2.85c-.37.46-.71.92-1,1.37s-.64.92-.93,1.38a13.18,13.18,0,0,0-2,4.91,17,17,0,0,1-1.74,5,10.84,10.84,0,0,0-2.27.64,19.58,19.58,0,0,1-2.16.68,3.52,3.52,0,0,1-1.52,1.06,4.05,4.05,0,0,0-1.08.52,22.39,22.39,0,0,1-3.49.78,3,3,0,0,1-3-1.13l-1-1.08c-.16-.26-.41-.62-.74-1.08a6.92,6.92,0,0,1-.61-2.75A13.11,13.11,0,0,1,28,30q0-1.92,3.07-6.14A59.37,59.37,0,0,0,36,15.92a6.24,6.24,0,0,1,1.06.1,2.21,2.21,0,0,0,1,0q.69-.88,1.08-1.32A3.87,3.87,0,0,1,40.62,14.5ZM32.71,31.4c.45,1.28,1.1,1.91,1.94,1.9l3.07-.08c.46-.33.92-.67,1.38-1s1-.85,1.71-1.47a8.62,8.62,0,0,0,1-1.75c.42-.87.75-1.51,1-1.94.33-.82.61-1.63.86-2.43a16.27,16.27,0,0,0,.56-2.83L43,21.62l-.59,1.67a1.28,1.28,0,0,0-1.08.67,7,7,0,0,1-1.18,1.3c-.23,0-.43-.55-.59-1.65S39.18,22,38.85,22a18.65,18.65,0,0,1-2.48,1.62,4.25,4.25,0,0,0-1.85,1.92q-.48,1.27-1.08,2.82A11.6,11.6,0,0,0,32.71,31.4Z" transform="translate(-0.56 -3.33)"/><path class="a" d="M66.17,20.89Q66,20.79,65,22c-.67.78-1.12,1.18-1.35,1.18a3.71,3.71,0,0,0-2.36.81,3.77,3.77,0,0,1-1.48.86A39.17,39.17,0,0,1,57,27.94a8.15,8.15,0,0,0-2.14,3.27,8.91,8.91,0,0,0-1.35,2.92A8.37,8.37,0,0,1,52.17,37c-.63.29-1.24.56-1.85.81a8.5,8.5,0,0,1-1.94.51,9.52,9.52,0,0,0-.54-2,16.6,16.6,0,0,1-.64-2,94.55,94.55,0,0,1,5.46-10.44,46.52,46.52,0,0,0,4.77-10.79,2.17,2.17,0,0,1,1.4.27,13.63,13.63,0,0,0,1.45.57c.19,1.6.31,2.1.36,1.47s0-.14-.27,1.43a2.92,2.92,0,0,0,1.4-.2c.58-.2,1.21-.39,1.9-.59.13-.33.64-.69,1.52-1.1A7,7,0,0,0,67,13.86c.92-.2,1.49-.18,1.72.05s.39.34.49.34c.39-.06,1.28.54,2.65,1.82A6.44,6.44,0,0,1,71.6,18c-.21,1.23-.64,1.86-1.3,1.89-.49-.06-1,.23-1.6.89S67.29,21.48,66.17,20.89Z" transform="translate(-0.56 -3.33)"/><path class="a" d="M61.46,54a1.65,1.65,0,0,0-.05-.3c0-.13-.12-.55-.25-1.27-.75,0-1.33,0-1.72.05,0-.23,0-.51,0-.84a1.38,1.38,0,0,0-.2-.69c.69-1.14,1.39-2.27,2.09-3.36s1.4-2.21,2.09-3.32c2.66-4.78,4.55-8.49,5.7-11.13s2-4.6,2.56-5.87a14,14,0,0,0,.88-1.38,3.35,3.35,0,0,0,.54-1.62l-.56-.22-.57-.27a1.56,1.56,0,0,1,.3-.52c.19-.28.46-.71.78-1.3.1-.3.27-.75.52-1.35a4.15,4.15,0,0,0,.37-1.5A7.91,7.91,0,0,0,74.8,19c.24,0,.86-.12,1.84-.22a.3.3,0,0,1,.2-.09c.55-1,1.1-2,1.64-3s1.09-2,1.65-3c.52-.42,1-.85,1.47-1.28a5.78,5.78,0,0,0,1.18-1.52l.37,0a2.63,2.63,0,0,0,.42-.07c.33-1.05.71-2.1,1.15-3.17s.9-2.12,1.36-3.17a2,2,0,0,1,.83-.05,25.94,25.94,0,0,1,.49,3.34,3.9,3.9,0,0,0,.35.64,2.85,2.85,0,0,1,1-.64c.2.23.26.39.2.47a.76.76,0,0,0-.1.47C88,9.19,87.3,10.8,86.59,12.43a33.48,33.48,0,0,0-1.69,5,2.7,2.7,0,0,0-.08.41c0,.15,0,.29,0,.42A7.35,7.35,0,0,0,86.62,18a18.52,18.52,0,0,1,1.81-.4l.4-.39a11.64,11.64,0,0,1,3.63-1.52c1.28-.3,2.59-.54,3.94-.74a15.37,15.37,0,0,1,1.74-.29c1.13-.17,1.73-.27,1.79-.3.76-.1,1.2-.16,1.33-.2a1.63,1.63,0,0,1,.35-.05l-3,2.78a3.76,3.76,0,0,0-.54.57c-.79,0-1.44,0-2,.07a3.53,3.53,0,0,0-1.64.71A9,9,0,0,0,93.35,20q-2.61,1.14-5,2.41c-1.62.85-3.23,1.74-4.84,2.65a1.92,1.92,0,0,0,.64,2,3,3,0,0,1,.69.2c.46,1.08.94,2.35,1.45,3.83A4.42,4.42,0,0,0,88.83,34v.88l1.57.69a4.3,4.3,0,0,1,1.38,1,5.5,5.5,0,0,0-.1.89l-2-.22-2-.27a2,2,0,0,1-.52-.32l-1.64-1.4Q83.67,34,81.21,32.46a8.24,8.24,0,0,0-4.67-1.4c-.75.82-1.49,1.64-2.21,2.46s-1.44,1.62-2.16,2.4q-2.42,4.72-5.16,9.2T61.46,54Z" transform="translate(-0.56 -3.33)"/><path class="b" d="M.56,81.79v-.26s0-.09.1-.15A6.92,6.92,0,0,1,.8,80.05c.1-.46.31-1.77.64-3.93,0,0,.19-1,.47-2.8a16.84,16.84,0,0,1,.52-2.8c.22-1.94.48-3.9.76-5.9s.51-4,.71-6c.49-.88.79-1.43.88-1.64A1.35,1.35,0,0,1,5,56.61v-.84c-.07,0-.15-.17-.25-.41s-.42-.94-1-2.09c-.1-.2-.21-.46-.34-.79-.13-1-.27-2-.4-3.07s-.24-2.06-.34-3.07a1.91,1.91,0,0,0,.81-.94,1.92,1.92,0,0,1,.81-.93,4.8,4.8,0,0,1,2.31-.29A4.27,4.27,0,0,0,9,43.78c.2.59.35,1.06.47,1.4s.33.91.66,1.7a2.3,2.3,0,0,0,.94-.3A21.8,21.8,0,0,1,14.1,42.8a32.14,32.14,0,0,1,3.76-3.19,2,2,0,0,1,1.13-.4,7.84,7.84,0,0,0,3,1.08,3.15,3.15,0,0,1,1.87-.49l1.11.69,1.84,1.23a2.8,2.8,0,0,0,.12.64,6.17,6.17,0,0,1,.22.88c.07.59.11.94.13,1.06a.24.24,0,0,0,.12.22c0,.56,0,1.39.1,2.51q-1.62,2.94-3,6t-2.88,6a18.24,18.24,0,0,1-1.89,2.48c-.71.77-1.43,1.5-2.19,2.19A12.15,12.15,0,0,1,14,65.58a4.56,4.56,0,0,1-3.76-.76h-1c-.27,1.34-.43,2.18-.49,2.5s-.14.74-.2,1.23c-.07,0-.13.23-.2.59s-.1.56-.1.59c-.16.89-.35,1.79-.56,2.7a24.44,24.44,0,0,0-.47,2.71,2.17,2.17,0,0,0-.34,1.1c-.07.54-.12.94-.15,1.21-.2.29-.61.84-1.23,1.64S4.34,80.59,4,81.18A2.22,2.22,0,0,1,3.58,81,2.48,2.48,0,0,0,3,80.79H2a6.13,6.13,0,0,0-.24.88l-.47.12A2.65,2.65,0,0,0,.85,82l-.1.1H.56ZM12.3,54.05a2.89,2.89,0,0,0,.18,1,1,1,0,0,0,.66.67,2.5,2.5,0,0,0,.51-1.5c0-.48,0-1.06,0-1.75a6.75,6.75,0,0,1,.69.69,2.63,2.63,0,0,0,1.55.3c.54-.07,1.08-.12,1.64-.15a9.31,9.31,0,0,0-.71.83l-.76,1A8,8,0,0,0,15.37,57a16.84,16.84,0,0,0-.17,2,4.22,4.22,0,0,0,2.16-.47A6.12,6.12,0,0,0,19,56.9l.63-1.37a.75.75,0,0,0,.1-.35s0-.16.1-.39a1.13,1.13,0,0,1,.2-.44,11.78,11.78,0,0,1,.17-1.6q.17-1.16.42-1.35c.06-1,.1-1.79.12-2.21s.07-1.39.17-2.9V45.16a4.11,4.11,0,0,1-.07-.47,3.89,3.89,0,0,1,0-.51A16.72,16.72,0,0,0,15.74,46a5.93,5.93,0,0,0-3.14,4.12,2,2,0,0,0-.35,1.45c0,.71.05,1.21.05,1.5v1Zm0-1v0Z" transform="translate(-0.56 -3.33)"/><path class="b" d="M27.29,68.16a13.1,13.1,0,0,0-1.6-.94A2.7,2.7,0,0,1,24.44,66a4.22,4.22,0,0,1-1.37-.45,10.5,10.5,0,0,1,.58-2.5,5.77,5.77,0,0,1,1.53-2,3.4,3.4,0,0,0,.93-.83,5.12,5.12,0,0,1,1-.94,53.87,53.87,0,0,1,2.78-8,18.81,18.81,0,0,1,5-6.81,6.11,6.11,0,0,1,1.42-.69c0,.36.09.72.15,1.06a5,5,0,0,1,.1,1,1.11,1.11,0,0,0,.74.24c.16,0,.42-.09.78-.19-.06.26-.12.51-.17.76s-.09.48-.12.71a6,6,0,0,1-.74,1.21c-.29.37-.57.74-.83,1.1A10.9,10.9,0,0,1,35,52.19a7,7,0,0,0-1,2.65,4,4,0,0,0-.35,1.38c-.13.82-.19,1.27-.19,1.37q0,1.38,1.59.84c1-.36,2.09-.79,3.17-1.28A10.43,10.43,0,0,0,40.09,56c.48-.38,1.08-.9,1.8-1.55A34.87,34.87,0,0,1,44,51.11c.62-.86,1.28-1.82,2-2.9.91-.92,1.63-1.6,2.13-2s1-1,1.6-1.55c0,.06.33.12.89.17a1.1,1.1,0,0,1,1,1l.73,0,.79,0a5.46,5.46,0,0,1-.42,1.5c-.21.5-.4,1-.56,1.4A63,63,0,0,1,47.39,57a92,92,0,0,0-5,8.13l-2.78.3a1.47,1.47,0,0,0-.47.09,12.29,12.29,0,0,0-1.47.5,3.84,3.84,0,0,0,0-1.26,4.62,4.62,0,0,1,.37-1.2,2.4,2.4,0,0,0,.49-1.13,5.61,5.61,0,0,0,.2-1.13c-.06-.33-.58-.35-1.55-.08a10.19,10.19,0,0,0-2.92,1.45A9.28,9.28,0,0,0,33,64a9.17,9.17,0,0,1-1.3,1.28c-1.77,1.31-2.93,2.12-3.47,2.43A4.88,4.88,0,0,1,27.29,68.16Z" transform="translate(-0.56 -3.33)"/><path class="b" d="M77.12,56.07a15.42,15.42,0,0,0-5,3.46,29.39,29.39,0,0,0-3.64,4.8,2.82,2.82,0,0,1-1.23.58A1.59,1.59,0,0,1,66,64.77a3.55,3.55,0,0,1-.54-3.59,28.64,28.64,0,0,0,1-3.88,1.73,1.73,0,0,0,.37-.84c.08-.39.15-.72.22-1a2.65,2.65,0,0,1,.44-.81,1.12,1.12,0,0,0,.3-.67c-.13-.85-1-1.24-2.66-1.17a4.59,4.59,0,0,0-2.36.86,3.51,3.51,0,0,1-1.52.76,36.81,36.81,0,0,1-3.07,2.7A7.8,7.8,0,0,0,55.7,60,8.6,8.6,0,0,0,54,62.65a9.59,9.59,0,0,1-1.65,2.66l-1.89.54a7.15,7.15,0,0,1-1.84.24,7.75,7.75,0,0,0-.27-2A13.63,13.63,0,0,1,48,62.06a90.07,90.07,0,0,1,6.49-9.36,45.52,45.52,0,0,0,5.9-9.8,2.4,2.4,0,0,1,1.3.47,13,13,0,0,0,1.3.71,4.05,4.05,0,0,1-1.11,3.27,5.89,5.89,0,0,0-1.69,3.12c.33.09,1-.22,2-.94s1.82-1.28,2.41-1.67a6.15,6.15,0,0,1,1.87-1.4c1.08-.64,1.77-1.07,2.06-1.3,1.84-1.28,3-1.91,3.44-1.89a1.79,1.79,0,0,0,1.38-.91,2,2,0,0,1,1.42-.42c.5.05,1,.07,1.63.07a3.24,3.24,0,0,1,.32,2,13.15,13.15,0,0,0-.42,2.06c-.4.89-.73,1.71-1,2.46s-.61,1.57-1,2.46A3.43,3.43,0,0,1,74,52.14a2.5,2.5,0,0,0-.25,1.08,13.83,13.83,0,0,0,4.72-2.11c.06,0,.14,0,.22.07s.16.09.22,0Z" transform="translate(-0.56 -3.33)"/><path class="b" d="M69.85,82.46a1.53,1.53,0,0,0,0-.3c0-.13-.11-.55-.25-1.27-.75,0-1.32,0-1.72,0,0-.23,0-.51,0-.84a1.49,1.49,0,0,0-.2-.69c.69-1.15,1.38-2.27,2.09-3.36s1.4-2.21,2.09-3.32q4-7.17,5.7-11.13T80,55.72a12.27,12.27,0,0,0,.89-1.37,3.35,3.35,0,0,0,.54-1.62c-.2-.07-.39-.14-.57-.22l-.56-.27a1.65,1.65,0,0,1,.29-.52,15.05,15.05,0,0,0,.79-1.3q.15-.45.51-1.35a4.15,4.15,0,0,0,.37-1.5c.36,0,.67-.08.91-.13s.86-.12,1.85-.22a.3.3,0,0,1,.19-.1c.56-1,1.11-2,1.65-3s1.09-2,1.64-3.05c.53-.43,1-.85,1.48-1.28a6,6,0,0,0,1.18-1.52l.37,0a2.7,2.7,0,0,0,.41-.07c.33-1,.72-2.1,1.16-3.17s.89-2.12,1.35-3.17a2.06,2.06,0,0,1,.84-.05,27.84,27.84,0,0,1,.49,3.34,3.87,3.87,0,0,0,.34.64,3,3,0,0,1,1-.64c.2.23.27.39.2.47a.76.76,0,0,0-.1.47c-.78,1.57-1.53,3.18-2.23,4.81a33.54,33.54,0,0,0-1.7,5,2.7,2.7,0,0,0-.07.41,3.19,3.19,0,0,0,0,.42A7.29,7.29,0,0,0,95,46.44c.62-.17,1.23-.3,1.82-.4l.39-.39a11.69,11.69,0,0,1,3.64-1.52c1.28-.3,2.59-.54,3.93-.74a17.16,17.16,0,0,1,1.75-.3c1.13-.16,1.72-.26,1.79-.29.75-.1,1.19-.16,1.33-.2a1.55,1.55,0,0,1,.34-.05l-3,2.78a5.31,5.31,0,0,0-.54.57c-.79,0-1.43,0-1.94.07a3.52,3.52,0,0,0-1.65.71,9.66,9.66,0,0,0-1.18,1.72q-2.59,1.14-5,2.41c-1.63.85-3.24,1.74-4.84,2.65a1.94,1.94,0,0,0,.63,2,2.55,2.55,0,0,1,.69.2c.46,1.08.94,2.35,1.45,3.83a4.42,4.42,0,0,0,2.58,2.9v.88l1.57.69a4.09,4.09,0,0,1,1.38,1,7,7,0,0,0-.1.89l-2-.22-2-.27a2.48,2.48,0,0,1-.51-.32l-1.65-1.4q-1.77-1.23-4.22-2.73a8.26,8.26,0,0,0-4.67-1.4c-.76.82-1.49,1.64-2.22,2.46s-1.44,1.62-2.16,2.4q-2.4,4.72-5.16,9.19T69.85,82.46Z" transform="translate(-0.56 -3.33)"/></svg>